<svg width="1280" height="720" xmlns="http://www.w3.org/2000/svg" xmlns:xlink="http://www.w3.org/1999/xlink" overflow="hidden"><defs><clipPath id="clip0"><rect x="0" y="0" width="1280" height="720"/></clipPath></defs><g clip-path="url(#clip0)"><rect x="0" y="0" width="1280" height="720" fill="#FFFFFF"/><rect x="147.5" y="110.5" width="662" height="566" stroke="#000000" stroke-width="1.33333" stroke-miterlimit="8" fill="#FFFFFF"/><rect x="199.5" y="153.5" width="193" height="129" stroke="#787878" stroke-width="1.33333" stroke-miterlimit="8" fill="#FFFFFF"/><text font-family="Times New Roman,Times New Roman_MSFontService,sans-serif" font-weight="700" font-size="27" transform="translate(205.432 212)">Context<tspan font-size="27" x="90.3333" y="0">-</tspan><tspan font-size="27" x="99.1667" y="0">Aware </tspan><tspan font-size="27" x="61.02" y="32">Unit</tspan></text><rect x="374.5" y="314.5" width="196" height="129" stroke="#000000" stroke-width="1.33333" stroke-miterlimit="8" fill="#D9D9D9"/><text font-family="Times New Roman,Times New Roman_MSFontService,sans-serif" font-weight="700" font-size="27" transform="translate(424.664 373)">Selected <tspan font-size="27" x="-12.58" y="32">Algorithm</tspan></text><path d="M0 0 661.705 0.000104987" stroke="#000000" stroke-width="3" stroke-miterlimit="8" fill="none" fill-rule="evenodd" transform="matrix(1 0 0 -1 147.5 461.5)"/><path d="M0-3 438.196-3 438.196 44.5164 432.196 44.5164 432.196 0 435.196 3 0 3ZM444.196 41.5164 435.196 59.5164 426.196 41.5164Z" transform="matrix(-1 1.22465e-16 1.22465e-16 1 907.196 255)"/><path d="M297 282.5 297 294.5 294 294.5 294 282.5ZM297 303.5 297 315.5 294 315.5 294 303.5ZM297 324.5 297 336.5 294 336.5 294 324.5ZM297 345.5 297 357.5 294 357.5 294 345.5ZM297 366.5 297 378.5 294 378.5 294 366.5ZM297 387.5 297 399.5 294 399.5 294 387.5ZM297 408.5 297 420.5 294 420.5 294 408.5ZM297 429.5 297 441.5 294 441.5 294 429.5ZM297 450.5 297 462.5 294 462.5 294 450.5ZM297 471.5 297 483.5 294 483.5 294 471.5ZM297 492.5 297 504.5 294 504.5 294 492.5ZM297 513.5 297 525.5 294 525.5 294 513.5ZM302.046 518.906 295.5 530.127 288.954 518.906C288.537 518.19 288.779 517.272 289.494 516.854 290.21 516.437 291.128 516.679 291.546 517.394L296.796 526.394 294.204 526.394 299.454 517.394C299.872 516.679 300.79 516.437 301.506 516.854 302.222 517.272 302.463 518.19 302.046 518.906Z"/><rect x="206.5" y="530.5" width="179" height="124" stroke="#787878" stroke-width="1.33333" stroke-miterlimit="8" fill="#FFFFFF"/><text font-family="Times New Roman,Times New Roman_MSFontService,sans-serif" font-weight="700" font-size="27" transform="translate(267.452 602)">CPU</text><rect x="563.5" y="525.5" width="178" height="129" stroke="#000000" stroke-width="1.33333" stroke-miterlimit="8" fill="#D9D9D9"/><text font-family="Times New Roman,Times New Roman_MSFontService,sans-serif" font-weight="700" font-size="27" transform="translate(615.417 600)">FPGA</text><path d="M570.5 354.404 827.584 354.404 827.584 344.5 870.5 381.5 827.584 418.5 827.584 408.596 570.5 408.596Z" stroke="#000000" stroke-miterlimit="8" fill="#FFFFFF" fill-rule="evenodd"/><text font-family="Times New Roman,Times New Roman_MSFontService,sans-serif" font-weight="700" font-size="27" transform="translate(602.631 391)">Enhanced<tspan font-size="27" x="120.833" y="0">Output</tspan></text><path d="M86.5001 350.538 331.004 350.538 331.004 340.5 374.5 378 331.004 415.5 331.004 405.462 86.5001 405.462Z" stroke="#000000" stroke-miterlimit="8" fill="#FFFFFF" fill-rule="evenodd"/><text font-family="Times New Roman,Times New Roman_MSFontService,sans-serif" font-weight="700" font-size="27" transform="translate(182.421 388)">Input</text><path d="M0-1.5 12-1.5 12 1.5 0 1.5ZM21-1.5 33-1.5 33 1.5 21 1.5ZM42.5589 0.941056 42.5589 12.9411 39.5589 12.9411 39.5589 0.941056ZM42.5589 21.9411 42.5589 33.9411 39.5589 33.9411 39.5589 21.9411ZM42.5589 42.9411 42.5589 54.9411 39.5589 54.9411 39.5589 42.9411ZM42.5589 63.9411 42.5589 75.9411 39.5589 75.9411 39.5589 63.9411ZM42.5589 84.9411 42.5589 96.9411 39.5589 96.9411 39.5589 84.9411ZM42.5589 105.941 42.5589 117.941 39.5589 117.941 39.5589 105.941ZM42.5589 126.941 42.5589 138.941 39.5589 138.941 39.5589 126.941ZM42.5589 147.941 42.5589 159.941 39.5589 159.941 39.5589 147.941ZM42.5589 168.941 42.5589 180.333 41.0589 178.833 41.667 178.833 41.667 181.833 39.5589 181.833 39.5589 168.941ZM50.667 178.833 62.667 178.833 62.667 181.833 50.667 181.833ZM71.667 178.833 79.1477 178.833 79.1477 181.833 71.667 181.833ZM70.9035 173.787 82.1246 180.333 70.9035 186.879C70.1879 187.296 69.2694 187.054 68.852 186.339 68.4346 185.623 68.6763 184.705 69.3919 184.287L78.3919 179.037 78.3919 181.629 69.3919 176.379C68.6763 175.961 68.4346 175.043 68.852 174.327 69.2694 173.612 70.1879 173.37 70.9035 173.787Z" transform="matrix(1.83697e-16 1 1 -1.83697e-16 472.5 443.5)"/><path d="M0-3 82.5618-3 82.5618 48.6043 79.5618 45.6043 500.331 45.6043 500.331 51.6043 76.5618 51.6043 76.5618 0 79.5618 3 0 3ZM497.331 39.6043 515.331 48.6043 497.331 57.6043Z" transform="matrix(1 0 0 -1 392 217.604)"/><path d="M0 12.3337C0 5.52197 5.52195-5.25169e-15 12.3336-7.00225e-15L207.666 0C214.478-3.50113e-15 220 5.52197 220 12.3337L220 61.6663C220 68.478 214.478 74 207.666 74L12.3336 74C5.52195 74-1.75056e-15 68.478 0 61.6663Z" stroke="#000000" stroke-width="1.33333" stroke-miterlimit="8" fill="#D9D9D9" fill-rule="evenodd" transform="matrix(-1 1.22465e-16 1.22465e-16 1 1143.5 181.5)"/><text font-family="Times New Roman,Times New Roman_MSFontService,sans-serif" font-weight="700" font-size="27" transform="translate(963.771 228)">Algorithm <tspan font-size="27" x="125" y="0">1</tspan></text><path d="M0 12.5002C-1.79034e-15 5.59655 5.59655-3.58069e-15 12.5002-3.58069e-15L212.5 0C219.403-3.58069e-15 225 5.59655 225 12.5002L225 62.4998C225 69.4035 219.403 75 212.5 75L12.5002 75C5.59655 75 0 69.4035 0 62.4998Z" stroke="#000000" stroke-width="1.33333" stroke-miterlimit="8" fill="#D9D9D9" fill-rule="evenodd" transform="matrix(-1 1.22465e-16 1.22465e-16 1 1146.5 267.5)"/><text font-family="Times New Roman,Times New Roman_MSFontService,sans-serif" font-weight="700" font-size="27" transform="translate(964.271 314)">Algorithm <tspan font-size="27" x="125" y="0">2</tspan></text><path d="M0 12.3337C0 5.52197 5.52197-3.58069e-15 12.3337-7.16138e-15L212.666 0C219.478-3.58069e-15 225 5.52197 225 12.3337L225 61.6663C225 68.478 219.478 74 212.666 74L12.3337 74C5.52197 74 0 68.478 0 61.6663Z" stroke="#000000" stroke-width="1.33333" stroke-miterlimit="8" fill="#D9D9D9" fill-rule="evenodd" transform="matrix(-1 1.22465e-16 1.22465e-16 1 1146.5 378.5)"/><text font-family="Times New Roman,Times New Roman_MSFontService,sans-serif" font-weight="700" font-size="27" transform="translate(961.271 425)">Algorithm N</text><path d="M907.5 123.656C907.5 122.465 908.465 121.5 909.656 121.5L1158.34 121.5C1159.54 121.5 1160.5 122.465 1160.5 123.656L1160.5 461.345C1160.5 462.535 1159.54 463.5 1158.34 463.5L909.656 463.5C908.465 463.5 907.5 462.535 907.5 461.345Z" stroke="#000000" stroke-width="1.33333" stroke-miterlimit="8" fill="none" fill-rule="evenodd"/><text font-family="Times New Roman,Times New Roman_MSFontService,sans-serif" font-weight="700" font-size="27" transform="matrix(6.12323e-17 1 -1 6.12323e-17 1035.82 353)">…</text><text font-family="Times New Roman,Times New Roman_MSFontService,sans-serif" font-weight="700" font-size="27" transform="translate(989.771 161)">Storag<tspan font-size="27" x="75.5" y="0">e</tspan><tspan font-size="27" x="-377.93" y="80">Bitstream</tspan><tspan font-size="27" x="-355.254" y="-9">Select</tspan></text></g></svg>